<svg xmlns="http://www.w3.org/2000/svg" width="24" height="18" viewBox="0 0 24 18" fill="none">
    <path d="M15.0547 0.973235C14.577 1.47092 14.577 2.27487 15.0547 2.77255L19.8076 7.72386L1.22496 7.72386C0.551233 7.72386 1.34599e-06 8.29811 1.4687e-06 8.99998C1.59142e-06 9.70184 0.551233 10.2761 1.22496 10.2761L19.8198 10.2761L15.067 15.2274C14.5893 15.7251 14.5893 16.529 15.067 17.0267C15.5447 17.5244 16.3165 17.5244 16.7942 17.0267L23.6417 9.89325C24.1194 9.39557 24.1194 8.59162 23.6417 8.09393L16.7819 0.973235C16.3164 0.475552 15.5325 0.475552 15.0547 0.973235Z" fill="#90949C" />
</svg>