<svg xmlns="http://www.w3.org/2000/svg" width="32" height="32" viewBox="0 0 32 32" fill="none">
    <path d="M2.38768 14.0596C2.88219 14.0596 3.28306 13.9264 3.28306 13.7621C3.28306 13.5978 2.88219 13.4646 2.38768 13.4646C1.89318 13.4646 1.49231 13.5978 1.49231 13.7621C1.49231 13.9264 1.89318 14.0596 2.38768 14.0596Z" fill="#90949C" />
    <path d="M1.09471 15.5194C1.58922 15.5194 1.99009 15.3834 1.99009 15.2156C1.99009 15.0479 1.58922 14.9119 1.09471 14.9119C0.600213 14.9119 0.199341 15.0479 0.199341 15.2156C0.199341 15.3834 0.600213 15.5194 1.09471 15.5194Z" fill="#90949C" />
    <path d="M1.09474 17.2565C1.69935 17.2565 2.18949 17.0919 2.18949 16.8888C2.18949 16.6857 1.69935 16.521 1.09474 16.521C0.490134 16.521 0 16.6857 0 16.8888C0 17.0919 0.490134 17.2565 1.09474 17.2565Z" fill="#90949C" />
    <path d="M2.55724 19.1834C3.25547 19.1834 3.82151 18.9962 3.82151 18.7654C3.82151 18.5345 3.25547 18.3474 2.55724 18.3474C1.859 18.3474 1.29297 18.5345 1.29297 18.7654C1.29297 18.9962 1.859 19.1834 2.55724 19.1834Z" fill="#90949C" />
    <path d="M24.0632 20.7461C24.7502 20.7461 25.3072 20.6151 25.3072 20.4536C25.3072 20.2921 24.7502 20.1611 24.0632 20.1611C23.3762 20.1611 22.8192 20.2921 22.8192 20.4536C22.8192 20.6151 23.3762 20.7461 24.0632 20.7461Z" fill="#90949C" />
    <path d="M5.65037 20.5779C6.40861 20.5779 7.02328 20.3908 7.02328 20.1599C7.02328 19.9291 6.40861 19.7419 5.65037 19.7419C4.89214 19.7419 4.27747 19.9291 4.27747 20.1599C4.27747 20.3908 4.89214 20.5779 5.65037 20.5779Z" fill="#90949C" />
    <path d="M19.5171 21.5821C20.2753 21.5821 20.89 21.3949 20.89 21.1641C20.89 20.9332 20.2753 20.7461 19.5171 20.7461C18.7588 20.7461 18.1442 20.9332 18.1442 21.1641C18.1442 21.3949 18.7588 21.5821 19.5171 21.5821Z" fill="#90949C" />
    <path d="M31.6549 18.6874C31.4542 18.7418 31.2473 18.768 31.0399 18.7653C30.5457 18.7653 30.1446 18.6398 30.1446 18.4841C30.1446 18.3285 30.5457 18.2029 31.0399 18.2029C31.2151 18.2018 31.3899 18.2194 31.5617 18.2557C31.5262 17.9475 31.5098 17.6372 31.5127 17.3268V12.5759C31.5057 12.0304 31.4077 11.4905 31.2236 10.9805C31.0697 10.4859 30.798 10.0411 30.4337 9.68883C29.9264 9.2337 29.3096 8.93415 28.6511 8.82282C27.7144 8.66673 26.7664 8.59699 25.8181 8.61444C25.1338 8.61058 24.4505 8.66806 23.7755 8.78635C23.2591 8.86347 22.7578 9.02802 22.2914 9.27345C21.8387 9.52014 21.4454 9.8716 21.1407 10.3014C20.8352 10.797 20.6267 11.3518 20.528 11.9332L24.2768 12.3486C24.3728 11.9694 24.5866 11.6348 24.8837 11.3973C25.3278 11.1505 25.8281 11.038 26.3293 11.0721C26.7035 11.0315 27.0784 11.1405 27.3798 11.3772C27.6091 11.6761 27.7165 12.0583 27.6782 12.4402C27.2247 12.6304 26.7614 12.7942 26.2908 12.931C25.8523 13.0565 24.8974 13.2745 23.4258 13.585C22.4899 13.6971 21.6087 14.107 20.9005 14.7599C20.4343 15.3148 20.1896 16.0372 20.2168 16.7771C20.2114 17.1943 20.2934 17.6074 20.4575 17.9874C20.6216 18.3673 20.8635 18.7045 21.1658 18.9749C21.9555 19.6231 22.9458 19.9405 23.9451 19.866C24.7712 19.8832 25.5924 19.7319 26.3637 19.4205C26.4831 19.3702 26.5908 19.3099 26.703 19.2459C26.7297 19.2261 26.7583 19.2098 26.7887 19.1971C27.191 18.949 27.563 18.6497 27.8956 18.3059C27.9245 18.5371 27.9694 18.7657 28.0303 18.9899C28.0303 19.0037 28.0459 19.0263 28.0507 19.0414C28.6607 19.0602 29.1332 19.1819 29.1332 19.3301C29.1332 19.4556 28.7882 19.5635 28.3107 19.6037L28.3194 19.6226H32C31.8593 19.322 31.7438 19.0091 31.6549 18.6874ZM27.6782 15.1728C27.6946 15.6052 27.6125 16.0355 27.4392 16.428C27.2547 16.7767 26.9765 17.0606 26.6394 17.2439C26.2678 17.4652 25.8476 17.5803 25.4205 17.5778C25.0785 17.6038 24.7398 17.4936 24.4715 17.2691C24.3691 17.1702 24.2873 17.05 24.2314 16.9162C24.1754 16.7823 24.1463 16.6377 24.1463 16.4915C24.1463 16.3452 24.1754 16.2006 24.2314 16.0667C24.2873 15.9329 24.3691 15.8127 24.4715 15.7138C24.9259 15.3845 25.4415 15.1599 25.9842 15.0548C26.5692 14.8992 27.1316 14.7201 27.6712 14.5176L27.6782 15.1728Z" fill="#90949C" />
    <path d="M18.2152 18.6085V8.80919H14.6768V10.3429C14.3169 9.78226 13.8381 9.31741 13.2778 8.98493C12.6847 8.68986 12.0325 8.54906 11.3769 8.57445C10.8324 8.55305 10.2906 8.65538 9.78723 8.87461C9.28389 9.09384 8.83106 9.42474 8.46049 9.84466C7.65476 10.8812 7.25547 12.202 7.34419 13.5375C7.28896 14.7412 7.59158 15.9332 8.20984 16.9479C8.55177 17.5113 9.02459 17.9737 9.58379 18.2915C10.143 18.6093 10.7704 18.772 11.406 18.7642C11.9827 18.7798 12.5548 18.6525 13.0761 18.3928C13.5974 18.1331 14.0531 17.7483 14.4069 17.2692V18.8419C14.4612 19.4101 14.3176 19.9798 14.0024 20.4449C13.8412 20.6077 13.6492 20.7328 13.4387 20.812C13.2282 20.8912 13.004 20.9226 12.7811 20.9043C12.4096 20.9189 12.0429 20.8127 11.7307 20.6004C11.5089 20.4144 11.3575 20.1515 11.3034 19.8587L7.63332 19.4194C7.62019 19.6403 7.61525 19.8159 7.61525 19.9465C7.59902 20.4272 7.69125 20.9052 7.88398 21.3414C8.07671 21.7776 8.36472 22.1598 8.72456 22.4569C9.95837 23.2129 11.3873 23.5411 12.8085 23.3946C13.5844 23.4043 14.3589 23.3226 15.1175 23.1511C15.7212 23.0213 16.2896 22.7505 16.7806 22.359C17.2322 21.9747 17.5918 21.4848 17.831 20.9282C18.092 20.3465 18.2267 19.711 18.2251 19.0679L18.2152 18.6085ZM9.72719 21.4163C8.83301 21.4163 8.10841 21.2281 8.10841 20.9971C8.10841 20.7662 8.83301 20.5791 9.72719 20.5791C10.6214 20.5791 11.346 20.7662 11.346 20.9971C11.346 21.2281 10.6238 21.4163 9.72719 21.4163ZM13.9569 15.4868C13.8069 15.6628 13.6238 15.8039 13.4189 15.9011C13.214 15.9983 12.9919 16.0495 12.7671 16.0512C12.5424 16.053 12.32 16.0053 12.1137 15.9114C11.9074 15.8174 11.7218 15.6792 11.5692 15.5056C11.2309 15.0271 11.0694 14.4357 11.1146 13.8413C11.0602 13.197 11.2117 12.552 11.5453 12.0086C11.6849 11.8291 11.8621 11.6858 12.063 11.59C12.2638 11.4942 12.4832 11.4485 12.7036 11.4564C12.9377 11.4544 13.1689 11.5073 13.381 11.6113C13.5931 11.7153 13.7806 11.8678 13.9295 12.0577C14.2929 12.5514 14.4712 13.1682 14.4308 13.7911C14.4768 14.3984 14.3081 15.0022 13.9569 15.4868ZM14.4536 21.9172C13.5594 21.9172 12.8336 21.7114 12.8336 21.4579C12.8336 21.2043 13.5594 20.9971 14.4536 20.9971C15.3477 20.9971 16.0723 21.203 16.0723 21.4579C16.0723 21.7127 15.3477 21.9172 14.4536 21.9172Z" fill="#90949C" />
</svg>