<svg xmlns="http://www.w3.org/2000/svg" width="20" height="40" viewBox="0 0 20 40" fill="none">
    <path d="M2.53542 32.1608L2.68336 31.7887C2.68336 31.7887 2.25961 31.5583 1.85991 31.3013C1.41457 31.016 1.08992 30.7695 1.08992 30.7695L0.752161 31.0142C1.03403 31.033 1.29937 31.1515 1.49719 31.3474L0.54808 32.6623C0.396592 32.8626 0.144187 33.2225 0 33.2561L0.297656 33.4688C0.443668 33.5751 0.604224 33.6743 0.604224 33.6743C0.691469 33.4354 0.814821 33.2104 0.969611 33.0063L1.94635 31.6345C2.24933 31.8135 2.48067 31.9357 2.53542 32.1608Z" fill="#90949C" />
    <path d="M17.3264 35.9446L17.2338 35.9924L17.142 36.0367V36.0828C17.1511 36.0598 17.1841 36.0438 17.2133 36.0296L17.3024 36.2068C17.3189 36.2312 17.3291 36.2592 17.3318 36.2883L17.3701 36.2706L17.4102 36.2511C17.3938 36.2511 17.3705 36.2016 17.3541 36.1733L17.2685 36.0119C17.2922 35.9957 17.3198 35.9859 17.3487 35.9835L17.3264 35.9446Z" fill="#90949C" />
    <path d="M2.05742 32.9834C2.00255 33.1935 2.01017 33.4145 2.0797 33.6205C2.14923 33.8265 2.27724 34.009 2.44954 34.1468C2.62185 34.2847 2.83136 34.3719 3.05288 34.3987C3.27439 34.4255 3.49892 34.3906 3.70077 34.2981C3.90262 34.2055 4.07327 34.0591 4.19271 33.876C4.31214 33.6929 4.37552 33.4805 4.3754 33.2637C4.37528 33.047 4.31145 32.8347 4.19181 32.6517C4.07218 32.4687 3.90184 32.3226 3.69988 32.2303C3.54179 32.167 3.37176 32.1364 3.20081 32.1405C3.02987 32.1447 2.86172 32.1834 2.7071 32.2543C2.55247 32.3252 2.41441 32.4267 2.3025 32.5522C2.19059 32.6777 2.10752 32.8246 2.05742 32.9834ZM3.60809 32.4269C4.04247 32.6272 3.87702 33.1838 3.61967 33.7066C3.36233 34.2294 3.01846 34.7077 2.5859 34.5075C2.15334 34.3072 2.31942 33.7472 2.5859 33.2244C2.85237 32.7016 3.17544 32.2267 3.61165 32.4269H3.60809Z" fill="#90949C" />
    <path d="M5.10556 35.5566C5.04533 35.4555 5.23482 34.9186 5.27132 34.7769L5.74633 33.2279C6.13873 33.3253 6.19529 33.3679 6.31758 33.5398L6.35768 33.1409C6.35768 33.1409 5.98342 33.0577 5.52531 32.9319C5.01975 32.7919 4.75444 32.689 4.75444 32.689L4.51916 33.0275C4.71445 32.9407 4.80732 32.9496 5.21251 33.0808L4.73661 34.6404C4.67965 34.9005 4.5681 35.1465 4.40955 35.3634C4.52428 35.4055 4.64195 35.4416 4.76067 35.4715C4.97422 35.53 5.10556 35.5566 5.10556 35.5566Z" fill="#90949C" />
    <path d="M7.6277 33.5982C8.07303 33.6532 8.13704 33.701 8.30678 33.8464L8.28807 33.4457C8.28807 33.4457 7.86289 33.4085 7.41025 33.3429C6.95761 33.2774 6.60016 33.1941 6.60016 33.1941L6.43262 33.5733C6.61513 33.4688 6.69714 33.4387 7.08407 33.5149L6.81939 35.1258C6.79851 35.3865 6.72627 35.6411 6.60729 35.8756C6.60729 35.8756 6.74038 35.9039 6.95574 35.934C7.17111 35.9642 7.32113 35.9801 7.32113 35.9801C7.2903 35.7163 7.30381 35.4492 7.36123 35.1896L7.6277 33.5982Z" fill="#90949C" />
    <path d="M8.51978 35.3493C8.52999 35.6034 8.49427 35.8572 8.41284 36.0989C8.41284 36.0989 8.8162 36.1325 9.32542 36.1396C9.79448 36.1396 10.1132 36.1396 10.1132 36.1396L10.2015 35.6522C10.0189 35.8968 9.62946 35.9323 9.05271 35.9252L9.08747 34.8619H9.8325C9.90186 34.8619 9.9038 34.8246 9.9038 34.7537C9.9038 34.6828 9.90364 34.6456 9.83429 34.6438H9.1044L9.13203 33.7471C9.46698 33.6997 9.80817 33.762 10.1025 33.9243L10.0384 33.5221C10.0384 33.5221 9.75426 33.5381 9.25234 33.5221C8.86723 33.5062 8.91992 33.5078 8.50196 33.4795C8.59869 33.5734 8.5733 34.0252 8.57147 34.3053L8.51978 35.3493Z" fill="#90949C" />
    <path d="M12.302 35.9996C12.3381 35.9958 12.373 35.9848 12.4045 35.9671C12.4359 35.9494 12.4634 35.9254 12.4847 35.8968C12.3934 35.8454 12.3513 35.5654 12.302 35.1773L12.1763 34.1334C12.1227 33.8762 12.1132 33.612 12.1487 33.3518C12.1487 33.3518 12.0884 33.3643 11.9259 33.3856L11.7165 33.4122C11.8199 33.6505 11.8808 33.9038 11.8983 34.1618L12.0097 35.0479L10.6685 33.5006L10.2683 33.5149C10.3574 33.772 10.404 34.0411 10.4056 34.3124L10.4679 35.3599C10.5025 35.6147 10.4895 35.8732 10.4296 36.1236L10.8636 36.1041C10.7705 36.0296 10.7544 35.4786 10.738 35.3315L10.6881 34.4045L11.9972 35.8631C12.0301 35.9109 12.0762 35.9491 12.13 35.9732C12.1838 35.9973 12.2432 36.0063 12.302 35.9996Z" fill="#90949C" />
    <path d="M14.7161 35.459L15.0503 35.3617C14.9134 35.2713 14.8224 34.8069 14.7749 34.6261L14.5227 33.6C14.4386 33.3565 14.3942 33.1018 14.3899 32.845C14.3899 32.845 14.291 32.8805 14.0629 32.9443L13.7233 33.0382C13.856 33.2493 13.9453 33.4835 13.9862 33.7276L14.0762 34.0662L13.2563 34.2592L13.1922 33.928C13.1281 33.6814 13.1035 33.4267 13.1191 33.1729C13.1191 33.1729 13.0044 33.2048 12.7653 33.2491L12.4204 33.3146C12.5317 33.3714 12.6245 33.8641 12.661 34.0591L12.8624 35.1012C12.9209 35.3498 12.9367 35.606 12.9097 35.8597C12.9097 35.8597 13.052 35.8383 13.2546 35.7976L13.6199 35.7249C13.5086 35.6593 13.421 35.1224 13.3936 34.9629L13.3 34.4701L14.1306 34.2717L14.2545 34.7572C14.3351 35.0155 14.3722 35.285 14.3641 35.5548C14.3641 35.5548 14.6048 35.4927 14.7161 35.459Z" fill="#90949C" />
    <path d="M16.9672 33.9774L15.7766 32.5438C15.6397 32.3896 15.5617 32.386 15.3756 32.4622C15.2623 32.5123 15.1533 32.5715 15.0503 32.6394C15.0873 32.6666 15.1179 32.7017 15.1385 32.7421C15.1621 32.8078 15.1756 32.8765 15.1786 32.9459L15.2508 34.9964C15.2626 35.1109 15.2436 35.2266 15.1947 35.3315L15.4103 35.266C15.5509 35.2217 15.6349 35.1913 15.6349 35.1913C15.6024 35.1752 15.577 35.1482 15.5636 35.1152C15.534 34.999 15.5157 34.8804 15.5101 34.7608L15.4834 34.3283L16.2953 34.0201L16.5306 34.3052C16.614 34.405 16.6891 34.5112 16.7551 34.6226C16.782 34.678 16.7869 34.7409 16.7694 34.7998C16.7694 34.7998 16.9209 34.743 17.149 34.6438L17.5002 34.4915C17.2818 34.3652 17.0988 34.1886 16.9672 33.9774ZM15.4772 34.0856L15.4264 32.8663L16.1563 33.8375L15.4772 34.0856Z" fill="#90949C" />
    <path d="M19.4287 32.4657L18.7826 31.6594C18.5968 31.4485 18.4492 31.2089 18.345 30.9504C18.345 30.9504 18.2095 31.0479 18.0617 31.1436C17.9138 31.2393 17.8317 31.2942 17.8317 31.2942L18.4217 33.047L16.9227 31.8065C16.9227 31.8065 16.8012 31.872 16.6643 31.9376L16.3479 32.0864C16.4976 32.1449 16.6713 32.4409 16.8282 32.721L17.3487 33.6672C17.498 33.8872 17.6047 34.1315 17.6642 34.3885L17.8469 34.3018C17.9637 34.2468 18.0545 34.199 18.0545 34.199C17.9067 34.1565 17.6901 33.717 17.5733 33.5061L17.1072 32.6712L18.4377 33.7347C18.4804 33.7741 18.5366 33.7968 18.5955 33.7988C18.6543 33.8007 18.7123 33.7818 18.7577 33.7453C18.7965 33.7135 18.8293 33.6759 18.8557 33.6337L18.2916 31.8881L18.9929 32.7742C19.1671 32.9696 19.3066 33.1918 19.4056 33.4316L19.6898 33.2436C19.8541 33.1355 20 33.0241 20 33.0241C19.8211 33.001 19.5656 32.6323 19.4287 32.4657Z" fill="#90949C" />
    <path d="M17.412 35.9003L17.3701 35.9217C17.392 35.9217 17.4161 35.9625 17.4307 35.9873L17.4967 36.0952C17.5076 36.1112 17.5386 36.1592 17.535 36.1822L17.5582 36.1697L17.584 36.1556C17.5639 36.1467 17.538 36.1006 17.5234 36.0758L17.4637 35.9819L17.617 36.1006C17.6195 36.1033 17.6224 36.1055 17.6259 36.1069C17.6293 36.1084 17.6328 36.1091 17.6366 36.1091C17.6404 36.1091 17.6447 36.1084 17.6482 36.1069C17.6516 36.1055 17.6545 36.1033 17.6571 36.1006L17.6696 36.0883L17.6054 35.8897L17.682 35.9907C17.7028 36.0129 17.7195 36.0388 17.7302 36.0669L17.7631 36.0457L17.7997 36.0208C17.774 36.0021 17.7516 35.9794 17.7337 35.9535L17.6606 35.8614C17.6386 35.8379 17.6236 35.8091 17.617 35.7781L17.5822 35.8012L17.5492 35.8187L17.6152 36.0156L17.445 35.8774L17.412 35.9003Z" fill="#90949C" />
    <path d="M4.6689 36.5614C4.6689 36.5614 4.48674 36.5011 4.34986 36.4515L3.99962 36.3276C3.97659 36.5947 3.9027 36.8554 3.78217 37.0966L3.6583 37.398L2.84197 37.0718L2.9703 36.8059C3.07068 36.5932 3.26034 36.1202 3.3954 36.0688C3.29866 36.0316 3.21227 35.9942 3.0407 35.918C2.94064 35.8776 2.84374 35.8314 2.74929 35.7798C2.70922 36.055 2.61715 36.3206 2.47747 36.5632L2.04079 37.5008C1.90391 37.7843 1.79813 38.066 1.61926 38.1511C1.61926 38.1511 1.6757 38.1813 1.9294 38.2947C2.14476 38.3922 2.29478 38.4488 2.29478 38.4488C2.24915 38.3265 2.43731 37.933 2.5158 37.7576L2.7582 37.2578L3.59235 37.5964L3.43194 38.034C3.38083 38.1723 3.22029 38.7236 3.04873 38.7679C3.18926 38.8264 3.26394 38.8494 3.39718 38.8955L3.74385 39.0143C3.69092 38.8814 3.8495 38.5127 3.94258 38.2575L4.29104 37.3199C4.36592 37.046 4.49423 36.7885 4.6689 36.5614Z" fill="#90949C" />
    <path d="M5.99617 36.9052C5.73514 36.7874 5.44273 36.7504 5.15934 36.7994C4.87595 36.8484 4.61565 36.981 4.41253 37.1791C4.20941 37.3771 4.07416 37.631 4.02486 37.9064C3.97556 38.1818 4.01477 38.4651 4.13715 38.7181C4.25953 38.9711 4.45866 39.1814 4.7084 39.3204C4.95814 39.4594 5.24609 39.5203 5.53275 39.495C5.8194 39.4696 6.09099 39.3592 6.31075 39.1787C6.53052 38.9982 6.68751 38.7563 6.7608 38.486C6.82636 38.3342 6.85884 38.1707 6.85527 38.0061C6.8517 37.8416 6.81238 37.6796 6.74031 37.5306C6.66823 37.3816 6.56457 37.2489 6.43641 37.1412C6.30825 37.0335 6.15833 36.9531 5.99617 36.9052ZM6.20292 38.3425C6.05508 38.8919 5.81186 39.4059 5.34827 39.2942C4.88468 39.1826 4.93754 38.6067 5.08537 38.0537C5.23321 37.5008 5.47461 36.9903 5.94002 37.1072C6.40543 37.2242 6.35076 37.7949 6.20292 38.3425Z" fill="#90949C" />
    <path d="M7.89229 37.2598C7.52726 37.2155 7.22974 37.1834 7.09468 37.1533L6.91199 37.5449C7.0945 37.435 7.21296 37.405 7.64187 37.4581L7.43957 38.9859C7.41457 39.1926 7.37848 39.3977 7.33174 39.6008C7.31723 39.6549 7.29047 39.7052 7.25331 39.7479C7.32632 39.7603 7.49276 39.7887 7.6187 39.8011C7.74463 39.8135 7.88489 39.8277 7.9725 39.8383C7.92901 39.5777 7.93566 39.3116 7.99121 39.0532L8.19351 37.5202C8.55854 37.5468 8.72094 37.5645 8.87973 37.7435L8.85566 37.3519C8.85566 37.3519 8.13686 37.2881 7.89229 37.2598Z" fill="#90949C" />
    <path d="M10.1827 38.4877C9.80309 38.2822 9.52057 38.1475 9.52057 37.8976C9.51649 37.848 9.5235 37.7981 9.54196 37.7518C9.56041 37.7054 9.58928 37.6636 9.62662 37.6295C9.66396 37.5955 9.70878 37.5701 9.75762 37.5551C9.80647 37.5401 9.85843 37.5359 9.90912 37.543C10.0394 37.5505 10.166 37.5892 10.2772 37.6557C10.3883 37.7222 10.4808 37.8145 10.5463 37.9242L10.6444 37.5252C10.4145 37.4053 10.1576 37.3443 9.89665 37.3481C9.42028 37.3481 9.01437 37.5785 9.01437 38.0304C9.01437 38.3636 9.18128 38.587 9.62662 38.8103C10.072 39.0336 10.2015 39.1647 10.1997 39.3579C10.198 39.4188 10.1827 39.4788 10.156 39.534C10.1292 39.5891 10.0911 39.638 10.0437 39.678C9.99632 39.718 9.94145 39.7482 9.8815 39.7663C9.82154 39.7844 9.75762 39.7901 9.69524 39.7832C9.55252 39.7661 9.41772 39.712 9.30401 39.6266C9.1903 39.5411 9.10189 39.4274 9.04913 39.2975L8.95288 39.7336C9.17521 39.9134 9.45773 40.0078 9.74693 39.9993C10.3401 40.0082 10.7247 39.6752 10.7192 39.2162C10.7137 38.9627 10.6153 38.7252 10.1827 38.4877Z" fill="#90949C" />
    <path d="M12.8749 37.809C12.8272 37.6562 12.7271 37.5242 12.5906 37.4352C12.3545 37.294 12.0741 37.2393 11.8001 37.2809C11.2033 37.3359 10.8876 37.3819 10.8876 37.3819C10.9928 37.6205 11.0466 37.8774 11.0462 38.137L11.1683 39.3775C11.1927 39.5479 11.182 39.7213 11.1371 39.8878C11.1371 39.8878 11.2886 39.8878 11.4802 39.8683C11.7339 39.8488 11.8679 39.8348 11.8679 39.8348C11.7511 39.7338 11.7104 39.2427 11.6977 39.1027L11.539 37.5185C11.5388 37.5136 11.5391 37.5086 11.5408 37.504C11.5425 37.4994 11.5454 37.495 11.5488 37.4914C11.5522 37.4878 11.5567 37.4851 11.5613 37.483C11.5659 37.4809 11.5705 37.4795 11.5756 37.4793C11.6394 37.4687 11.6994 37.4635 11.6994 37.4635C11.8454 37.4483 11.9922 37.4867 12.1103 37.5715C12.1784 37.627 12.2335 37.6962 12.2716 37.7742C12.3097 37.8522 12.3301 37.9371 12.3313 38.0234C12.3576 38.2032 12.3127 38.3861 12.2065 38.5357C12.1202 38.6367 11.9962 38.7004 11.8616 38.7129H11.8313C11.804 38.7129 11.8055 38.7483 11.8055 38.7483V38.7678C11.8055 38.8529 11.8418 38.89 11.9659 38.8812C12.1033 38.8828 12.2397 38.8578 12.3669 38.8076C12.4942 38.7574 12.6101 38.6831 12.7074 38.5889C12.8246 38.4666 12.8967 38.3101 12.9132 38.1439C12.9191 38.085 12.9191 38.0256 12.9132 37.9667C12.9048 37.9132 12.892 37.8605 12.8749 37.809Z" fill="#90949C" />
    <path d="M15.0869 37.4704C14.9937 37.2183 14.9513 36.9513 14.9612 36.6836C14.8882 36.7084 14.7787 36.7368 14.6181 36.7846L14.275 36.8768C14.4112 37.0938 14.5023 37.3347 14.5432 37.5857L14.8338 38.649C14.8857 38.7987 14.8805 38.9614 14.8204 39.1081C14.7916 39.1555 14.7525 39.196 14.7054 39.2267C14.6584 39.2573 14.6047 39.2773 14.5486 39.2853C14.4962 39.2975 14.4421 39.299 14.3891 39.2898C14.336 39.2807 14.2851 39.261 14.2402 39.2321C14.117 39.1286 14.0371 38.9848 14.0157 38.828L13.7581 37.7646C13.6792 37.5171 13.656 37.256 13.6904 36.999C13.6904 36.999 13.5775 37.0257 13.3348 37.0682C13.0921 37.1108 12.9355 37.1338 12.9355 37.1338C13.0867 37.361 13.1824 37.6186 13.2163 37.8871L13.4186 38.7183C13.4742 38.9629 13.6279 39.1761 13.8454 39.3108C14.063 39.4456 14.3269 39.4908 14.5789 39.4367C14.8308 39.3827 15.0506 39.2337 15.1894 39.0224C15.3282 38.8112 15.3742 38.5551 15.3186 38.3105L15.0869 37.4704Z" fill="#90949C" />
    <path d="M17.9618 38.1032C17.587 37.9426 17.2368 37.7314 16.9227 37.4759C17.0242 37.4063 17.1093 37.3161 17.1714 37.2117C17.2536 37.0761 17.2826 36.9165 17.2534 36.7617C17.2451 36.7132 17.2317 36.6656 17.2133 36.6198C17.192 36.5707 17.1658 36.5238 17.1348 36.4798C17.0542 36.3611 16.9315 36.2753 16.7899 36.2388C16.5092 36.1779 16.2153 36.2124 15.9576 36.3364C15.6981 36.4477 15.4324 36.5446 15.1617 36.6269C15.2877 36.6943 15.4395 37.1143 15.5271 37.3482L15.8631 38.3194C15.9614 38.5478 16.0162 38.7915 16.0253 39.0389C16.0253 39.0389 16.1531 39.0034 16.3666 38.929C16.5802 38.8546 16.7186 38.8016 16.7186 38.8016C16.5945 38.7325 16.4576 38.3196 16.3791 38.1087L15.8613 36.6696C15.8376 36.6058 15.8613 36.5897 15.8613 36.5897C15.9008 36.5622 15.9434 36.5396 15.9888 36.5224C16.1042 36.4739 16.2334 36.4675 16.3533 36.5047C16.4299 36.5346 16.4992 36.5798 16.5564 36.6375C16.6137 36.6953 16.6578 36.7641 16.6857 36.8396C16.7261 36.9147 16.7482 36.9978 16.7507 37.0826C16.7533 37.1673 16.7367 37.2515 16.7008 37.3287C16.6439 37.4483 16.5452 37.545 16.4228 37.6018L16.3996 37.6124C16.3973 37.6132 16.3952 37.6142 16.3934 37.6158C16.3916 37.6174 16.3899 37.6195 16.3889 37.6217C16.3879 37.6238 16.3872 37.626 16.3871 37.6284C16.387 37.6307 16.3871 37.6331 16.388 37.6353C16.7118 37.9658 17.0926 38.2394 17.5127 38.4435C17.609 38.4711 17.712 38.47 17.8077 38.4403C17.9033 38.4106 17.9872 38.3537 18.0492 38.277C18.0947 38.2328 18.1279 38.1777 18.1445 38.1173C18.1147 38.1272 18.0824 38.1312 18.051 38.1288C18.0196 38.1263 17.9897 38.1176 17.9618 38.1032Z" fill="#90949C" />
    <path d="M5.54092 26.9433C5.42267 26.9123 5.32029 26.8412 5.25129 26.7429C5.06901 26.9593 4.93783 27.212 4.86719 27.483C4.79654 27.754 4.78793 28.0368 4.84223 28.3114C5.13824 29.2803 5.72607 30.1411 6.53014 30.7829C7.33421 31.4246 8.31712 31.8181 9.35342 31.9126C8.29734 31.5216 7.37827 30.8465 6.70303 29.9664C6.02779 29.0863 5.62456 28.0377 5.54092 26.9433Z" fill="#90949C" />
    <path d="M4.65458 27.3953C4.7493 27.0468 4.90354 26.7161 5.11086 26.4171C5.07047 26.2075 5.0751 25.9919 5.12512 25.7843C5.01348 25.7101 4.90768 25.6285 4.80786 25.5398C4.66755 26.0401 4.60583 26.5581 4.62517 27.0762C4.63368 27.1826 4.64363 27.289 4.65458 27.3953Z" fill="#90949C" />
    <path d="M10.9786 31.8155C11.7801 31.6416 12.5287 31.2869 13.1629 30.7801C13.797 30.2733 14.299 29.6287 14.6289 28.8983C14.5438 28.9127 14.4576 28.9208 14.3713 28.923C14.3025 29.2481 14.1121 29.537 13.8366 29.7334C13.5611 29.9299 13.2204 30.0201 12.8804 29.9865C12.4436 29.9402 12.0118 29.8572 11.5899 29.7384C11.4389 29.6833 11.301 29.5996 11.1835 29.4922C11.0661 29.3848 10.9713 29.2558 10.9055 29.1127C10.8333 28.9619 10.7925 28.7987 10.7852 28.6325C10.7814 28.5018 10.7954 28.3713 10.8271 28.2443C9.26693 27.7894 7.75209 27.1992 6.30073 26.481C6.26032 26.5543 6.2118 26.6231 6.15636 26.6865C6.07816 26.7822 5.97801 26.8582 5.86316 26.908C5.9787 27.8817 6.32234 28.8166 6.86842 29.6408C7.48717 30.6578 8.48792 31.4019 9.6605 31.7162C10.0875 31.8397 10.537 31.8736 10.9786 31.8155Z" fill="#90949C" />
    <path d="M5.22594 25.4864C5.27672 25.3701 5.34408 25.2615 5.42646 25.1638C5.48593 25.0953 5.55593 25.0356 5.63321 24.9866C5.80561 24.1428 6.21825 23.3629 6.82473 22.7358C5.9333 23.3511 5.26204 24.2218 4.90601 25.2259C5.00047 25.3257 5.10836 25.4133 5.22594 25.4864Z" fill="#90949C" />
    <path d="M5.61951 26.7076C5.68741 26.7097 5.75476 26.6946 5.81468 26.6634C5.87459 26.6323 5.92497 26.5864 5.96083 26.5304C6.0871 26.3702 6.17432 26.184 6.21482 25.9861C6.25532 25.7882 6.2479 25.5841 6.19432 25.3892C6.14322 25.251 6.06295 25.164 5.9644 25.1463C5.89879 25.1372 5.83252 25.145 5.77101 25.169C5.7095 25.1929 5.65511 25.2322 5.61416 25.2828C5.50132 25.4107 5.41581 25.5592 5.36285 25.7196C5.30988 25.8799 5.29063 26.0489 5.30581 26.2167C5.30885 26.2972 5.32464 26.3768 5.35304 26.4525C5.37306 26.5127 5.40825 26.5673 5.45464 26.6117C5.50103 26.6562 5.55723 26.689 5.61951 26.7076Z" fill="#90949C" />
    <path d="M14.0451 27.9502C13.9984 27.8686 13.9351 27.7973 13.8588 27.7406C13.7825 27.6839 13.6945 27.6429 13.6012 27.6205L13.3989 27.5781C13.2164 27.5427 12.9408 27.4876 12.5265 27.3884C12.265 27.3212 11.9869 27.3518 11.7476 27.4743C11.5082 27.5967 11.325 27.8021 11.2343 28.0495C11.5044 28.1257 11.7691 28.1967 12.0283 28.2605C12.0529 28.15 12.0697 28.038 12.0791 27.9254C12.0818 27.8845 12.1009 27.8464 12.1326 27.8193C12.1642 27.7923 12.2063 27.7785 12.2484 27.7811C12.2905 27.7836 12.3293 27.8022 12.3571 27.833C12.385 27.8637 12.399 27.9039 12.3964 27.9448C12.385 28.0753 12.3654 28.205 12.3367 28.3329L12.4899 28.3684L12.6432 28.4004C12.6888 28.1842 12.718 27.9999 12.7199 27.9963C12.727 27.9566 12.7495 27.9212 12.7831 27.8977C12.8168 27.8741 12.8589 27.8644 12.8999 27.8704C12.9409 27.8764 12.9783 27.8978 13.0033 27.9299C13.0283 27.962 13.0388 28.0024 13.0336 28.0424C13.0336 28.0566 13.0008 28.2408 12.9551 28.4623L13.2581 28.5155C13.2792 28.4042 13.2937 28.2918 13.3018 28.1789C13.3027 28.1586 13.3081 28.1386 13.317 28.1203C13.3258 28.1019 13.3381 28.0855 13.3535 28.0718C13.3689 28.0581 13.3873 28.0475 13.407 28.0407C13.4266 28.0338 13.4476 28.0308 13.4685 28.0318C13.4892 28.0327 13.5094 28.0377 13.5282 28.0463C13.547 28.0549 13.5641 28.067 13.5781 28.082C13.592 28.097 13.6024 28.1146 13.6093 28.1337C13.6161 28.1527 13.6194 28.1728 13.6182 28.193C13.6105 28.3166 13.5945 28.4397 13.5718 28.5616C13.7909 28.5917 13.9755 28.6077 14.1288 28.6148C14.1869 28.3909 14.1572 28.1539 14.0451 27.9502Z" fill="#90949C" />
    <path d="M10.8965 17.4158C10.9237 18.6893 10.505 19.9339 9.70857 20.9461C8.35979 22.254 7.24831 21.3006 7.23553 22.6138C6.58422 23.2349 6.1419 24.0333 5.96826 24.9036H6.00837C6.13745 24.9289 6.25191 25.002 6.32652 25.1074C7.21025 24.4182 8.2336 23.9175 9.32982 23.6378C10.426 23.3581 11.5702 23.3057 12.6887 23.4839C13.2745 23.5901 13.8232 23.8382 14.2839 24.2052C13.6622 23.227 12.7174 22.483 11.6032 22.0946C11.3368 22.0024 10.8725 21.8959 10.8725 21.0594C10.8725 19.4998 12.6303 20.7051 13.7929 19.0126C13.8495 18.9293 13.7677 18.8566 13.7002 18.9222C13.2192 19.2762 12.6369 19.4768 12.0337 19.4964C11.8191 19.5126 11.6032 19.4779 11.4054 19.3953C11.6878 18.8602 12.011 18.3461 12.3714 17.8571C11.2964 16.8133 13.1012 11.071 17.8959 11.071C17.9063 10.0154 17.799 8.9619 17.5751 7.92888C17.4601 7.95546 16.5583 8.16273 16.5181 7.97842C16.478 7.7941 17.1825 7.46104 17.4307 7.34584C17.3229 6.93893 17.1642 6.54613 16.9593 6.17609C12.8563 7.43262 13.6745 10.7307 12.6816 10.7307C12.1617 10.6831 11.6807 10.4441 11.3368 10.0626C8.88559 7.6825 10.0276 6.10702 10.0276 2.94354C10.0276 0.81683 9.17509 0.01581 7.60181 0.01581C7.21779 -0.0247665 6.82916 0.0129497 6.46109 0.126792C6.09302 0.240635 5.75385 0.427955 5.46474 0.676729C5.76033 0.686047 6.0513 0.752298 6.32028 0.871651C6.58927 0.991003 6.83073 1.16115 7.03145 1.37205C7.23217 1.58294 7.38816 1.83047 7.48952 2.10025C7.59088 2.37002 7.636 2.65668 7.62231 2.94354C7.62231 5.24747 4.95231 5.88199 4.95231 8.80267C4.93406 13.6693 10.8965 13.5789 10.8965 17.4158ZM8.05275 2.94873C8.05443 2.69108 8.0253 2.43411 7.96541 2.1831C8.0357 2.17566 8.10322 2.15476 8.16504 2.12145C8.22686 2.08813 8.28176 2.04324 8.32545 1.98926C8.36914 1.93529 8.40119 1.87331 8.41992 1.8071C8.43864 1.7409 8.44334 1.67182 8.43418 1.60375C8.44334 1.45289 8.41135 1.30221 8.34149 1.16717C8.27164 1.03213 8.16681 0.91737 8.03671 0.83444C7.96918 0.83444 7.95101 0.9054 7.805 0.9054C7.43997 0.9054 7.42001 0.460605 7.42001 0.460605H7.58399C8.60972 0.460605 9.55885 0.763671 9.55885 2.95241C9.55025 3.67697 9.5008 4.40058 9.41092 5.11992C9.33055 5.71036 9.29215 6.30548 9.29595 6.90105C9.29595 6.90105 7.50913 6.69715 7.50913 5.39099C7.50913 4.54031 8.05275 4.33464 8.05275 2.94873Z" fill="#90949C" />
    <path d="M11.9496 28.5579C11.6813 28.4923 11.4017 28.4196 11.1279 28.3398C11.0714 28.557 11.093 28.7865 11.1885 28.9904C11.2864 29.2032 11.4665 29.37 11.6902 29.4546C12.0893 29.5649 12.497 29.6426 12.9094 29.6868C13.16 29.7088 13.4105 29.6436 13.6161 29.5027C13.8217 29.3618 13.9687 29.1544 14.0314 28.9177C13.8635 28.9088 13.6828 28.8893 13.4967 28.8645C13.4622 28.9753 13.4163 29.0823 13.3585 29.1836C13.3482 29.201 13.3339 29.2163 13.3175 29.2286C13.3011 29.2409 13.2823 29.2499 13.2623 29.2552C13.2423 29.2604 13.2222 29.2619 13.2017 29.2593C13.1811 29.2567 13.1608 29.2503 13.1429 29.2403C13.1249 29.2302 13.1092 29.2168 13.0965 29.2009C13.0839 29.185 13.0743 29.1669 13.0689 29.1474C13.0635 29.128 13.0627 29.1077 13.0653 29.0877C13.068 29.0678 13.0746 29.0485 13.0849 29.031C13.1226 28.9622 13.154 28.8906 13.1794 28.8167C13.0809 28.8007 12.9821 28.7812 12.8835 28.7634C12.8547 28.8795 12.8169 28.9933 12.7704 29.1037C12.7622 29.1223 12.7505 29.1392 12.7356 29.1533C12.7207 29.1674 12.7033 29.1785 12.6839 29.1859C12.6645 29.1934 12.6441 29.197 12.6233 29.1966C12.6025 29.1961 12.5817 29.1918 12.5627 29.1836C12.5242 29.1669 12.4934 29.136 12.478 29.0979C12.4627 29.0598 12.4641 29.0174 12.4807 28.9798C12.518 28.8891 12.5487 28.796 12.5734 28.7013L12.4201 28.6678L12.2579 28.6306C12.2287 28.721 12.1956 28.8078 12.1554 28.9071C12.1389 28.9447 12.108 28.9742 12.069 28.9895C12.03 29.0048 11.9865 29.0044 11.9478 28.9884C11.9285 28.9809 11.9109 28.9697 11.8961 28.9555C11.8813 28.9413 11.8693 28.9244 11.8613 28.9058C11.8534 28.8872 11.8497 28.8671 11.8498 28.8469C11.8498 28.8268 11.8533 28.8069 11.8613 28.7883C11.896 28.7103 11.924 28.6323 11.9496 28.5579Z" fill="#90949C" />
    <path d="M10.9277 27.9606C11.042 27.6367 11.2782 27.3666 11.589 27.2049C11.8998 27.0432 12.2621 27.0018 12.6031 27.0887C13.0101 27.188 13.2706 27.2393 13.4622 27.2765L13.6726 27.3191C13.8087 27.3512 13.9362 27.4103 14.0477 27.4926C14.1592 27.575 14.2522 27.6787 14.3204 27.7975C14.4617 28.0464 14.5078 28.3357 14.4515 28.6146C14.5613 28.6204 14.6712 28.5964 14.7678 28.5453C15.1729 27.4162 15.1563 26.1849 14.7206 25.0666C14.4964 24.71 14.1895 24.4089 13.8249 24.1872C13.4604 23.9654 13.0474 23.8289 12.6192 23.7887C11.5332 23.6166 10.4224 23.6716 9.3601 23.9501C8.29781 24.2285 7.30854 24.7239 6.45929 25.4032C6.52036 25.6683 6.50654 25.9446 6.41919 26.2026C7.86357 26.9208 9.37295 27.5092 10.9277 27.9606Z" fill="#90949C" />
</svg>